<svg version="1.1" id="Layer_1" xmlns="http://www.w3.org/2000/svg" xmlns:xlink="http://www.w3.org/1999/xlink" x="0px" y="0px"
	 width="100%" viewBox="0 0 225 225" enable-background="new 0 0 225 225" xml:space="preserve">
<path fill="#FEFEFE" opacity="1.000000" stroke="none" 
	d="
M0.999996,212.000000 
	C1.000000,141.734299 1.000000,71.468597 1.000000,1.101449 
	C75.999908,1.101449 150.999939,1.101449 226.000000,1.101449 
	C226.000000,7.407479 226.000000,13.734696 225.657074,20.402208 
	C221.528305,6.335122 205.875458,2.281497 194.961761,13.155011 
	C153.561462,54.402885 112.268921,95.759018 71.006882,137.145248 
	C69.443764,138.713074 68.594955,141.000336 67.445381,142.971085 
	C66.322090,144.896774 65.600204,147.203583 64.085396,148.731750 
	C43.119171,169.882874 22.046566,190.928528 0.999996,212.000000 
z"/>
<path fill="#FEFEFE" opacity="1.000000" stroke="none" 
	d="
M226.000000,28.999998 
	C226.000000,94.595940 226.000000,160.191879 226.000000,225.893906 
	C151.000122,225.893906 76.000076,225.893906 1.000000,225.893906 
	C1.000000,222.625351 1.000000,219.295639 1.330984,215.622833 
	C2.905868,216.027374 4.059641,217.096573 5.407219,217.474243 
	C24.755001,222.896759 42.260319,219.948242 57.058929,205.626297 
	C64.114655,198.797836 70.700569,191.462112 78.001678,184.916534 
	C83.079498,180.364166 85.676033,175.883972 83.185104,168.951935 
	C81.870773,165.294250 88.798531,156.774582 92.688309,157.229874 
	C98.947937,157.962524 102.961411,154.931427 107.012856,150.864807 
	C142.724915,115.019173 178.581146,79.317078 214.250870,43.429527 
	C218.602005,39.051819 222.104309,33.830402 226.000000,28.999998 
z"/>
<path fill="#040404" opacity="1.000000" stroke="none" 
	d="
M226.000000,28.555836 
	C222.104309,33.830402 218.602005,39.051819 214.250870,43.429527 
	C178.581146,79.317078 142.724915,115.019173 107.012856,150.864807 
	C102.961411,154.931427 98.947937,157.962524 92.688309,157.229874 
	C88.798531,156.774582 81.870773,165.294250 83.185104,168.951935 
	C85.676033,175.883972 83.079498,180.364166 78.001678,184.916534 
	C70.700569,191.462112 64.114655,198.797836 57.058929,205.626297 
	C42.260319,219.948242 24.755001,222.896759 5.407219,217.474243 
	C4.059641,217.096573 2.905868,216.027374 1.330984,215.139893 
	C1.000000,214.250000 1.000000,213.500000 0.999996,212.375000 
	C22.046566,190.928528 43.119171,169.882874 64.085396,148.731750 
	C65.600204,147.203583 66.322090,144.896774 67.445381,142.971085 
	C68.594955,141.000336 69.443764,138.713074 71.006882,137.145248 
	C112.268921,95.759018 153.561462,54.402885 194.961761,13.155011 
	C205.875458,2.281497 221.528305,6.335122 225.657074,20.871250 
	C226.000000,23.370558 226.000000,25.741116 226.000000,28.555836 
M138.063614,80.563553 
	C116.842018,101.787086 95.620422,123.010620 73.560165,145.072891 
	C81.484352,146.906418 88.018219,148.602798 94.641830,149.804642 
	C96.071655,150.064072 98.212700,148.933121 99.371506,147.783020 
	C122.182465,125.143539 144.911102,102.420959 167.572571,79.631805 
	C168.396820,78.802910 169.028900,76.848656 168.627518,75.888153 
	C166.178970,70.028755 163.405258,64.305229 160.497498,58.011517 
	C152.865280,65.684807 145.714417,72.874153 138.063614,80.563553 
M41.413624,207.998810 
	C45.237900,205.110413 49.353088,202.531570 52.825317,199.268555 
	C59.849686,192.667404 66.370499,185.528885 73.424042,178.961090 
	C76.094490,176.474594 77.147812,174.063873 75.873573,170.810089 
	C73.674934,165.195816 75.215942,160.862534 79.965683,157.408310 
	C80.732727,156.850494 81.302597,156.021545 82.015976,155.262207 
	C72.334000,151.265015 72.320236,151.251236 65.443810,158.123947 
	C48.632645,174.926010 31.832249,191.738876 15.042130,208.561981 
	C14.201181,209.404587 13.498281,210.384995 12.498155,211.579422 
	C22.705038,213.484680 31.919420,212.532867 41.413624,207.998810 
M198.500092,20.095917 
	C197.771912,21.569054 196.070633,23.426533 196.475708,24.452076 
	C198.852631,30.470081 201.721344,36.293839 204.639282,42.651585 
	C208.696091,38.555450 212.938553,35.345009 215.657928,31.147751 
	C217.462067,28.363091 218.053925,23.986814 217.435440,20.647707 
	C216.701935,16.687546 212.691711,14.077757 208.790268,14.675135 
	C205.367981,15.199150 202.274048,17.867729 198.500092,20.095917 
M186.502914,49.990482 
	C187.603943,52.313244 188.704956,54.636005 189.940277,57.242058 
	C193.137756,53.989765 195.922592,51.157196 198.908585,48.120014 
	C196.033142,41.824852 193.110107,35.425484 190.132568,28.906765 
	C180.566284,37.091122 180.567856,37.090385 185.647293,47.927319 
	C185.856689,48.374027 185.984222,48.859093 186.502914,49.990482 
M172.362915,66.068230 
	C173.301422,67.966385 174.239914,69.864548 175.461304,72.334892 
	C177.953278,69.661964 180.273163,67.476440 182.184158,64.978157 
	C182.973694,63.945965 183.530136,61.984161 183.089798,60.888256 
	C180.774185,55.125202 178.105896,49.503849 175.520462,43.745094 
	C165.675644,51.402416 165.677322,51.401646 170.445602,61.748837 
	C171.000397,62.952763 171.524536,64.170815 172.362915,66.068230 
z"/>
<path fill="#FBFBFB" opacity="1.000000" stroke="none" 
	d="
M138.313583,80.313522 
	C145.714417,72.874153 152.865280,65.684807 160.497498,58.011517 
	C163.405258,64.305229 166.178970,70.028755 168.627518,75.888153 
	C169.028900,76.848656 168.396820,78.802910 167.572571,79.631805 
	C144.911102,102.420959 122.182465,125.143539 99.371506,147.783020 
	C98.212700,148.933121 96.071655,150.064072 94.641830,149.804642 
	C88.018219,148.602798 81.484352,146.906418 73.560165,145.072891 
	C95.620422,123.010620 116.842018,101.787086 138.313583,80.313522 
z"/>
<path fill="#F8F8F8" opacity="1.000000" stroke="none" 
	d="
M41.081276,208.177734 
	C31.919420,212.532867 22.705038,213.484680 12.498155,211.579422 
	C13.498281,210.384995 14.201181,209.404587 15.042130,208.561981 
	C31.832249,191.738876 48.632645,174.926010 65.443810,158.123947 
	C72.320236,151.251236 72.334000,151.265015 82.015976,155.262207 
	C81.302597,156.021545 80.732727,156.850494 79.965683,157.408310 
	C75.215942,160.862534 73.674934,165.195816 75.873573,170.810089 
	C77.147812,174.063873 76.094490,176.474594 73.424042,178.961090 
	C66.370499,185.528885 59.849686,192.667404 52.825317,199.268555 
	C49.353088,202.531570 45.237900,205.110413 41.081276,208.177734 
M48.584202,182.999710 
	C46.379242,185.235260 43.852718,187.250900 42.108379,189.801453 
	C41.267670,191.030746 41.900414,193.267746 41.865955,195.048431 
	C43.644005,195.007401 45.877148,195.629700 47.105274,194.787140 
	C49.655045,193.037781 51.992226,190.738663 53.782070,188.215332 
	C54.787846,186.797363 54.527199,184.481140 54.837105,182.569595 
	C52.924049,182.542892 51.010998,182.516190 48.584202,182.999710 
M34.030304,197.681091 
	C34.178165,199.449265 33.890568,201.457687 34.672966,202.875778 
	C35.020573,203.505829 37.826767,203.442474 38.957375,202.762863 
	C39.825531,202.241028 40.362091,199.228348 40.111046,199.095886 
	C38.375729,198.180420 36.395058,197.730057 34.030304,197.681091 
z"/>
<path fill="#F8F8F8" opacity="1.000000" stroke="none" 
	d="
M198.767578,19.842487 
	C202.274048,17.867729 205.367981,15.199150 208.790268,14.675135 
	C212.691711,14.077757 216.701935,16.687546 217.435440,20.647707 
	C218.053925,23.986814 217.462067,28.363091 215.657928,31.147751 
	C212.938553,35.345009 208.696091,38.555450 204.639282,42.651585 
	C201.721344,36.293839 198.852631,30.470081 196.475708,24.452076 
	C196.070633,23.426533 197.771912,21.569054 198.767578,19.842487 
z"/>
<path fill="#F6F6F6" opacity="1.000000" stroke="none" 
	d="
M186.326416,49.658386 
	C185.984222,48.859093 185.856689,48.374027 185.647293,47.927319 
	C180.567856,37.090385 180.566284,37.091122 190.132568,28.906765 
	C193.110107,35.425484 196.033142,41.824852 198.908585,48.120014 
	C195.922592,51.157196 193.137756,53.989765 189.940277,57.242058 
	C188.704956,54.636005 187.603943,52.313244 186.326416,49.658386 
z"/>
<path fill="#F6F6F6" opacity="1.000000" stroke="none" 
	d="
M172.212906,65.725266 
	C171.524536,64.170815 171.000397,62.952763 170.445602,61.748837 
	C165.677322,51.401646 165.675644,51.402416 175.520462,43.745094 
	C178.105896,49.503849 180.774185,55.125202 183.089798,60.888256 
	C183.530136,61.984161 182.973694,63.945965 182.184158,64.978157 
	C180.273163,67.476440 177.953278,69.661964 175.461304,72.334892 
	C174.239914,69.864548 173.301422,67.966385 172.212906,65.725266 
z"/>
<path fill="#0E0E0E" opacity="1.000000" stroke="none" 
	d="
M48.841072,182.744598 
	C51.010998,182.516190 52.924049,182.542892 54.837105,182.569595 
	C54.527199,184.481140 54.787846,186.797363 53.782070,188.215332 
	C51.992226,190.738663 49.655045,193.037781 47.105274,194.787140 
	C45.877148,195.629700 43.644005,195.007401 41.865959,195.048431 
	C41.900414,193.267746 41.267670,191.030746 42.108379,189.801453 
	C43.852718,187.250900 46.379242,185.235260 48.841072,182.744598 
z"/>
<path fill="#0E0E0E" opacity="1.000000" stroke="none" 
	d="
M34.261761,197.405670 
	C36.395058,197.730057 38.375729,198.180420 40.111046,199.095886 
	C40.362091,199.228348 39.825531,202.241028 38.957375,202.762863 
	C37.826767,203.442474 35.020573,203.505829 34.672966,202.875778 
	C33.890568,201.457687 34.178165,199.449265 34.261761,197.405670 
z"/>
</svg>